# xmcd
#
# Track frame offsets:
#	150
#	18163
#	31582
#	46941
#	68957
#	83859
#	103395
#	122743
#	140592
#	157708
#	174659
#	193854
#	212136
#	240192
#	256877
#	277541
#	294144
#	312622
#	331466
#
# Disc length: 4631 seconds
#
# Revision: 0
# Processed by: cddbd v1.5.1PL2 Copyright (c) Steve Scherf et al.
# Submitted via: audiograbber 1.83.01
#
DISCID=02121513
DTITLE=diverse Interprten - 80tien CD 3
DYEAR=1900
DGENRE=
TTITLE0=Johnny B. Goode
TTITLE1=UB40
TTITLE2=Dreams
TTITLE3=Still Loving You
TTITLE4=Clint Eastwood and General Saint
TTITLE5=Such A Shame
TTITLE6=Laid back
TTITLE7=The Final Countdown
TTITLE8=Whodini
TTITLE9=The Way To Your Heart
TTITLE10=The Wild Boys
TTITLE11=Cyndi Lauper
TTITLE12=Roxy Music
TTITLE13=Anne, Jo-Anne - Secret Service
TTITLE14=Chris Rea
TTITLE15=Tina Turner
TTITLE16=Love Is A Battlefield
TTITLE17=Orchestral Manoeuvres in the Dark
TTITLE18=Mike Oldfield
EXTD=
EXTT0=
EXTT1=
EXTT2=
EXTT3=
EXTT4=
EXTT5=
EXTT6=
EXTT7=
EXTT8=
EXTT9=
EXTT10=
EXTT11=
EXTT12=
EXTT13=
EXTT14=
EXTT15=
EXTT16=
EXTT17=
EXTT18=
PLAYORDER=
